<svg width="24" height="24" viewBox="0 0 24 24" fill="none" xmlns="http://www.w3.org/2000/svg">
<path d="M4.25352 18.05L8.08132 17.0928L8.30216 16.2085C6.88701 16.0166 5.51448 15.5869 4.24256 14.9376C4.10079 14.8526 4.0103 14.7029 4.00075 14.5379C3.99073 14.3728 4.06196 14.2131 4.19161 14.1103C4.20959 14.0983 5.99511 12.6235 5.99511 7.51377C5.99511 3.20436 7.00326 1.01918 8.99261 1.01918H9.29236C9.98253 0.277536 10.9833 -0.0931224 11.9901 0.020033C13.8675 0.020033 17.9851 1.90747 17.9851 7.51377C17.9851 12.6235 19.7706 14.0983 19.7836 14.1083C20.0045 14.2735 20.0497 14.5866 19.8844 14.8076C19.8456 14.8594 19.7971 14.9032 19.7416 14.9366C18.4708 15.592 17.0965 16.0233 15.679 16.2115L15.8999 17.0938L19.7266 18.051C22.2287 18.6735 23.9837 20.9221 23.98 23.5004C23.98 23.7763 23.7563 24 23.4804 24H0.499628C0.223719 24 3.05176e-05 23.7763 3.05176e-05 23.5004C-0.00404549 20.9217 1.75108 18.6726 4.25352 18.05Z" fill="#0008C1"/>
</svg>
