<svg width="24" height="24" viewBox="0 0 24 24" fill="none" xmlns="http://www.w3.org/2000/svg">
<path d="M23.9858 23.379L23.3858 20.979C23.1011 19.8147 22.2381 18.8784 21.1008 18.5L16.7008 17.034C15.6277 16.587 15.1368 14.859 15.0307 14.203C15.8483 13.5231 16.3744 12.5558 16.5007 11.5C16.4827 11.3197 16.5253 11.1384 16.6217 10.985C16.7776 10.9459 16.9053 10.8343 16.9647 10.685C17.2526 9.98784 17.4333 9.25116 17.5007 8.49998C17.5009 8.45916 17.4959 8.41852 17.4857 8.379C17.4141 8.08711 17.2425 7.82953 17.0007 7.65098V4.99997C17.0007 3.38897 16.5087 2.72798 15.9907 2.34497C15.8918 1.569 15.0608 0 12.0008 0C9.28593 0.109313 7.11009 2.28516 7.00078 5.00002V7.65103C6.759 7.82958 6.58739 8.08716 6.51576 8.37905C6.50564 8.41856 6.50062 8.45925 6.50076 8.50003C6.56808 9.25158 6.74878 9.98859 7.03678 10.686C7.08009 10.8274 7.19367 10.9361 7.33678 10.9731C7.39279 11.001 7.49779 11.1461 7.49779 11.5001C7.62487 12.5589 8.154 13.5284 8.97581 14.2081C8.87081 14.8631 8.38279 16.5901 7.33982 17.0261L2.90081 18.5001C1.76442 18.8784 0.901918 19.8138 0.616824 20.9771L0.0168241 23.3771C-0.0510978 23.6447 0.110808 23.9168 0.378465 23.9847C0.418449 23.9949 0.459559 24 0.500809 24.0001H23.5008C23.777 24 24.0007 23.7761 24.0007 23.4999C24.0007 23.4591 23.9956 23.4185 23.9858 23.379Z" fill="#939393"/>
</svg>
